<svg xmlns="http://www.w3.org/2000/svg" viewBox="0 0 48 48" fill="none" aria-hidden="true">
  <defs>
    <linearGradient id="sc-grad" x1="0%" y1="0%" x2="100%" y2="100%">
      <stop offset="0%" stop-color="#0EA5A4"/>
      <stop offset="100%" stop-color="#0D9488"/>
    </linearGradient>
  </defs>
  <!-- Soft badge -->
  <path d="M24 4c6 0 10 2 14 6 2 2 4 6 4 10 0 8-2 14-6 18s-8 6-16 10c-8-4-12-6-16-10S4 28 4 20c0-4 2-8 4-10 4-4 8-6 14-6z" fill="url(#sc-grad)" opacity="0.14"/>
  <!-- Heartbeat / S-curve line -->
  <path d="M14 24h4l2-6 4 12 2-6h4" stroke="url(#sc-grad)" stroke-width="2.5" stroke-linecap="round" stroke-linejoin="round" fill="none"/>
  <circle cx="24" cy="24" r="3" fill="#0EA5A4"/>
</svg>
